<svg xmlns="http://www.w3.org/2000/svg" viewBox="0 0 654.78 109.48">
    <title>BansheeStudio</title>
    <path fill="#fc673f" d="M650.08 56.42 595.03 1.38 593.65 0l-1.38 1.38-55.05 55.05c-3 3-4.65 6.99-4.65 11.24 0 4.24 1.65 8.23 4.65 11.24l3.29 3.29 1.38 1.38 1.38-1.38 50.38-50.38 50.38 50.38 1.38 1.38 1.38-1.38 3.29-3.29c3-3 4.65-6.99 4.65-11.24 0-4.24-1.65-8.23-4.65-11.24Z"/>
    <path fill="#352a7f" d="m650.14 56.46-3.29-3.29-1.38-1.38-1.38 1.38-24.73 24.66-24.34-23.9-1.36-1.34-1.36 1.34-24.42 23.91-24.65-24.65-1.38-1.38-1.38 1.38-3.29 3.29c-3 3-4.66 7-4.66 11.25s1.65 8.24 4.66 11.25l29.16 29.16 1.36 1.36 1.38-1.35 24.55-24.03 24.47 24.03 1.38 1.35 1.36-1.36 29.25-29.17c6.21-6.19 6.22-16.28.03-22.49Z"/>
    <g fill="#352a7f">
        <path d="M115.93 8.8h25.16l-26.8 95.97H87.5L70.68 43.93 54 104.77H27.2L0 8.8h25.02L41.7 77.84 58.79 8.8h26.52l16.41 67.95L115.94 8.8ZM147.85 104.77V46.65h23.38v58.12h-23.38ZM220.56 84.95h8.34v19.82h-11.89c-8.57 0-15.2-1.89-19.89-5.67-4.7-3.78-7.04-10.27-7.04-19.48V47.9h-7.11V28.49h7.11V9.89h23.38v18.59h15.31v19.41h-15.31v31.72c0 3.55 2.37 5.33 7.11 5.33ZM265.62 3.6v36.09c4.83-8.02 12.53-12.03 23.1-12.03 8.75 0 15.83 2.92 21.26 8.75 5.42 5.83 8.13 13.76 8.13 23.79v44.57h-23.24V63.35c0-4.92-1.3-8.73-3.9-11.42-2.6-2.69-6.18-4.03-10.73-4.03s-8.13 1.35-10.73 4.03c-2.6 2.69-3.9 6.49-3.9 11.42v41.42h-23.38V3.6h23.38ZM398.03 104.77l-5.33-16.13h-34.45l-5.33 16.13h-24.88L361.4 8.53h28.44l33.22 96.24h-25.02Zm-33.91-33.9h22.69l-11.35-34.18-11.35 34.18ZM431.85 104.77V3.6h23.38v101.17h-23.38ZM472.2 104.77V3.6h23.38v101.17H472.2Z"/>
        <circle cx="159.17" cy="19.56" r="11.6"/>
    </g>
</svg>
