<svg width="1920" height="1080" viewBox="0 0 1920 1080" xmlns="http://www.w3.org/2000/svg"><path d="M1380,544.9999999999999C1373.9039164762428,606.5029868882988,1298.5818523935936,703.7589484076201,1261.3786240395448,760.2776147839442C1224.175395685496,816.7962811602682,1208.5340428294692,874.7537300146073,1156.7806298757073,884.1119982579444C1105.0272169219454,893.4702665012815,1021.083713834505,831.3684779837477,950.8581463169735,816.4272242439665C880.632578799442,801.4859705041854,789.0385600075865,814.260728390663,735.4272247705181,794.4644758192579C681.8158895334498,774.6682232478529,647.2296498738892,754.8354062546684,629.1901348945635,697.6497088155361C611.1506199152377,640.4640113764037,607.1506199152377,521.3595910508611,627.1901348945635,451.35029118446397C647.2296498738892,381.3409913180668,695.6737127609393,302.1292075368438,749.427224770518,277.5939096171532C803.1807367800967,253.05861169746262,883.1523061011708,311.2561549788367,949.7112069520357,304.13850366632045C1016.2701078029006,297.0208523538042,1090.7399768373652,220.36780344408382,1148.7806298757073,234.88800174205556C1206.8212829140493,249.4082000400273,1259.4185634947057,339.5743604111602,1297.9551251820878,391.2596934541509C1336.49168686947,442.9450264971416,1386.0960835237572,483.497013111701,1380,544.9999999999999C1373.9039164762428,606.5029868882988,1298.5818523935936,703.7589484076201,1261.3786240395448,760.2776147839442" fill="#FF380B"/></svg>