<svg width="222" height="284" viewBox="0 0 222 284" fill="none" xmlns="http://www.w3.org/2000/svg">
<path d="M24 36.8076C59.9176 -7.48499 89.1941 -4.20182 146.5 17.3076L143 26.3074C126.79 22.1787 117.704 21.0316 101.5 22.8074C81.2616 25.1982 83.6625 33.1578 92 49.3074C109.674 91.7905 122.402 112.625 146.5 148.308C174.962 183.813 189.557 204.289 206 244.808L219 263.308C211.592 281.205 203.477 283.378 185 279.308V263.308C156.554 229.024 144.341 205.232 125 159.808C105.378 121.227 91.7534 100.302 63 64.3075C51.9897 48.5945 45.0143 48.013 31.2352 60.8074L33.5 64.3075L17 73.3074L3 49.3074L17 38.8077L24 36.8076Z" fill="#FF7DFF"/>
<path d="M17 38.8077L3 49.3074L17 73.3074L33.5 64.3075L31.2352 60.8074M17 38.8077L31.2352 60.8074M17 38.8077L24 36.8076C59.9176 -7.48499 89.1941 -4.20182 146.5 17.3076L143 26.3074C126.79 22.1787 117.704 21.0316 101.5 22.8074C81.2616 25.1982 83.6625 33.1578 92 49.3074M31.2352 60.8074C45.0143 48.013 51.9897 48.5945 63 64.3075M63 64.3075L92 49.3074M63 64.3075C91.7534 100.302 105.378 121.227 125 159.808M92 49.3074C109.674 91.7905 122.402 112.625 146.5 148.308M125 159.808C144.341 205.232 156.554 229.024 185 263.308V279.308C203.477 283.378 211.592 281.205 219 263.308L206 244.808C189.557 204.289 174.962 183.813 146.5 148.308M125 159.808L146.5 148.308" stroke="#FF380B" stroke-width="4"/>
</svg>
