<svg width="323" height="214" viewBox="0 0 323 214" fill="none" xmlns="http://www.w3.org/2000/svg">
<path d="M78.3819 54.8266C88.2512 29.1706 97.6746 19.4802 122.011 11.253C152.152 -0.147022 166.858 0.447392 191.917 5.24291C212.918 9.58265 224.275 12.9549 237.034 35.7946L252.767 62.5897L305.089 92.2107C306.493 92.8829 307.796 93.6239 309 94.4251C333.491 110.717 317.267 151.886 283.966 144.876C239.249 135.462 104.683 201.86 78.3819 207.082C-38.6783 241.38 -7.02011 86.1399 78.3819 54.8266Z" fill="#FF7DFF"/>
<path d="M78.3819 54.8266C88.2512 29.1706 97.6746 19.4802 122.011 11.253C152.152 -0.147022 166.858 0.447392 191.917 5.24291C212.918 9.58265 224.275 12.9549 237.034 35.7946L252.767 62.5897M78.3819 54.8266L73.4303 121.939M78.3819 54.8266C-7.02011 86.1399 -38.6783 241.38 78.3819 207.082M268.5 89.3848C231.494 100.497 172.403 117.919 141.843 144.876M268.5 89.3848L252.767 62.5897M268.5 89.3848C287.421 86.1781 300.603 88.8395 309 94.4251M78.3819 207.082C102.655 182.133 122.818 161.657 141.843 144.876M78.3819 207.082C104.683 201.86 239.249 135.462 283.966 144.876C317.267 151.886 333.491 110.717 309 94.4251M141.843 144.876C128.696 150.974 121.437 152.136 108.625 151.489C89.4167 147.433 82.3025 143.574 72.4325 135.462L73.4303 121.939M73.4303 121.939C102.151 137.031 123.923 138.701 152.879 135.462M160.682 35.7946C139.975 69.8715 144.887 80.294 185.968 81.8715M90.7766 42.8058C90.1136 55.564 104.637 51.516 141.843 35.7946C167.403 24.6525 181.748 18.9325 207.782 26.2779M252.767 62.5897L309 94.4251" stroke="#FF380B" stroke-width="4"/>
</svg>
