<svg width="554" height="572" viewBox="0 0 554 572" fill="none" xmlns="http://www.w3.org/2000/svg">
<path d="M316.5 276L368 224L345 203.5L296 258.5L316.5 276Z" fill="#FF7DFF" stroke="#FF380B" stroke-width="6"/>
<path d="M504 224L483.5 189L466.5 224L431.5 241L466.5 267L483.5 296L504 267L547 241L504 224Z" fill="#FF7DFF"/>
<path d="M414.5 42L466.5 68L431.5 88.5L400 123L379.5 88.5L348 68L379.5 42L400 7.5L414.5 42Z" fill="#FF7DFF"/>
<path d="M264.5 123L296 143L264.5 157.5L247 189L229.5 157.5L198 143L229.5 123L247 88.5L264.5 123Z" fill="#FF7DFF"/>
<path d="M504 224L483.5 189L466.5 224L431.5 241L466.5 267L483.5 296L504 267L547 241L504 224Z" stroke="#FF380B" stroke-width="6"/>
<path d="M414.5 42L466.5 68L431.5 88.5L400 123L379.5 88.5L348 68L379.5 42L400 7.5L414.5 42Z" stroke="#FF380B" stroke-width="6"/>
<path d="M264.5 123L296 143L264.5 157.5L247 189L229.5 157.5L198 143L229.5 123L247 88.5L264.5 123Z" stroke="#FF380B" stroke-width="6"/>
<path d="M267 281.5L287.5 304.5L25 567L4.5 547L267 281.5Z" fill="#FF7DFF" stroke="#FF380B" stroke-width="6"/>
</svg>
